# xmcd CD database file
#
# Track frame offsets:
#	150
#	19468
#	38570
#	60110
#	80090
#	94613
#	114150
#	129930
#	148833
#	164123
#	185435
#	206558
#
# Disc length: 2998 seconds
#
# Revision: 0
# Processed by: cddbd v1.5.1PL0 Copyright (c) Steve Scherf et al.
# Submitted via: CDex 1.51
#
DISCID=9e0bb40c
DTITLE=Kool and The Gang - The Music Odyssey [CD1]
DYEAR=1900
DGENRE=R&B (一般)
TTITLE0=Steppin' Out Featuring Beverly Knight
TTITLE1=Get Down On It feat.Blue and Lil Kim
TTITLE2=Stressin'
TTITLE3=Cherish Featuring Ashanti
TTITLE4=Ladies Night Featuring Atomic Kitten
TTITLE5=Hollywood Swingin' Featuring Jamiroquai
TTITLE6=Straight Ahead Featuring Jamelia
TTITLE7=Celebration feat.LuLu and London Community Gospel Choir
TTITLE8=Fresh feat.Liverty X
TTITLE9=Jones Vs Jones feat.Angie Stone
TTITLE10=Let'S Go Dancin' feat.Jimmy Cliff and Bounty Killer
TTITLE11=Summer Madness feat.Yossou N'Dour and Lauryn Hill
EXTD=
EXTT0=
EXTT1=
EXTT2=
EXTT3=
EXTT4=
EXTT5=
EXTT6=
EXTT7=
EXTT8=
EXTT9=
EXTT10=
EXTT11=
PLAYORDER=
